<svg id="Layer_1" data-name="Layer 1" xmlns="http://www.w3.org/2000/svg" width="230" height="230" viewBox="0 0 230 230"><polygon points="115.5 5.7 210.4 60.5 210.4 170.1 115.5 224.9 20.6 170.1 20.6 60.5 115.5 5.7"/><path d="M61.9,164.2l-4.2-6a2,2,0,0,1,.2-2.1l15-17.7H65.5a1.7,1.7,0,0,1-1.8-1.8V123.7a1.7,1.7,0,0,1,1.8-1.8H75.9a53.4,53.4,0,0,1-2-13.7,42.6,42.6,0,0,1,85.2,0,45.9,45.9,0,0,1-2,13.7h10.4a1.7,1.7,0,0,1,1.8,1.8v12.9a1.7,1.7,0,0,1-1.8,1.8h-9.1l14.7,17.7a1.7,1.7,0,0,1,0,2.1l-4.1,6a2,2,0,0,1-2.4.5l-8.6-4.5H72.9l-8.7,4.5A1.9,1.9,0,0,1,61.9,164.2Zm27.3-25.8H77.4L61.5,157.1l2.5,3.6,30.5-16ZM67.3,125.5v9.3h98.4v-9.3Zm12.4-3.6h73.6a42.3,42.3,0,0,0,2.2-13.7,39,39,0,0,0-78,0C77.5,112.9,77.9,117.7,79.7,121.9ZM97,147.6l-17.1,9h24.5Zm-3.1-9.2L109,156.6h13l15.1-18.2Zm40.2,9.2-7.4,9h24.5Zm19.6-9.2H141.8l-5.4,6.3,30.6,16,2.5-3.4Z" fill="#fff"/></svg>