<svg id="Layer_1" data-name="Layer 1" xmlns="http://www.w3.org/2000/svg" width="230" height="230" viewBox="0 0 230 230"><polygon points="115.5 4.9 210.4 59.7 210.4 169.3 115.5 224.1 20.6 169.3 20.6 59.7 115.5 4.9"/><path d="M60.4,155a1.8,1.8,0,1,1,0-3.6h9V140.1h-9a1.7,1.7,0,0,1-1.8-1.8V102.8a1.7,1.7,0,0,1,1.8-1.8H72.3c.9-25.6,20-39.6,43.2-39.6s42.3,14,43.2,39.6h11.9a1.7,1.7,0,0,1,1.8,1.8v35.5a1.7,1.7,0,0,1-1.8,1.8h-9v11.3h9a1.8,1.8,0,1,1,0,3.6Zm1.8-50.4v31.9H168.8V104.6ZM73,140.1v11.3H84.5V140.1ZM75.9,101h79.2c-.9-23.2-18.5-36-39.6-36S76.8,77.8,75.9,101Zm12.2,39.1v11.3h18V140.1Zm21.6,0v11.3h11.6V140.1Zm48.8-12.3H114.6a1.8,1.8,0,0,1,0-3.6h43.9a1.8,1.8,0,1,1,0,3.6Zm-33.6,12.3v11.3h18V140.1Zm21.6,0v11.3H158V140.1Z" fill="#fff"/></svg>