<svg xmlns="http://www.w3.org/2000/svg"><symbol id="mecha-stilts" viewBox="0 0 230 230"><path d="M65.3 132.4h48.4v19.98H65.3zm48.4-17.1V79l-25.9 36.3h25.9zm-1.8-39.9c-23 1.4-42.3 18.1-47.9 39.9h19.3zm5.4-.2v40.1H167a53.6 53.6 0 0 0-49.7-40.1zm0 57.2h8.1v19.98h-8.1zm11.7 0h36.7v19.98H129z"/><path d="M115.5 5.9L20.6 60.7v109.6l94.9 54.8 94.9-54.8V60.7zm77.6 126.5h-23.8v21.8a1.7 1.7 0 0 1-1.8 1.8h-104a1.7 1.7 0 0 1-1.8-1.8v-21.8H37.9a1.8 1.8 0 1 1 0-3.6h13.5v-11.7a1.7 1.7 0 0 1 1.8-1.8h7a57.2 57.2 0 0 1 55.1-43.7c.2-.2.4-.2.7 0a57 57 0 0 1 54.8 43.7h7a1.7 1.7 0 0 1 1.8 1.8v11.7h13.5a1.8 1.8 0 1 1 0 3.6z"/><path d="M55 118.9h121v9.9H55z"/></symbol><symbol id="spacebubbles" viewBox="0 0 230 230"><path d="M89.2 138.4H77.4l-15.9 18.7 2.5 3.6 30.5-16-5.3-6.3zm4.7 0l15.1 18.2h13l15.1-18.2H93.9zm59.4-16.5a42.3 42.3 0 0 0 2.2-13.7 39 39 0 0 0-78 0c0 4.7.4 9.5 2.2 13.7zm-86 3.6h98.5v9.36H67.3zm12.6 31.1h24.5l-7.4-9-17.1 9z"/><path d="M115.5 5.7L20.6 60.5v109.6l94.9 54.8 94.9-54.8V60.5zm57.6 152.5l-4.1 6a2 2 0 0 1-2.4.5l-8.6-4.5H72.9l-8.7 4.5a1.9 1.9 0 0 1-2.3-.5l-4.2-6a2 2 0 0 1 .2-2.1l15-17.7h-7.4a1.7 1.7 0 0 1-1.8-1.8v-12.9a1.7 1.7 0 0 1 1.8-1.8h10.4a53.4 53.4 0 0 1-2-13.7 42.6 42.6 0 0 1 85.2 0 45.9 45.9 0 0 1-2 13.7h10.4a1.7 1.7 0 0 1 1.8 1.8v12.9a1.7 1.7 0 0 1-1.8 1.8h-9.1l14.7 17.7a1.7 1.7 0 0 1 0 2.1z"/><path d="M126.7 156.6h24.5l-17.1-9-7.4 9zm15.1-18.2l-5.4 6.3 30.6 16 2.5-3.4-15.8-18.9h-11.9z"/></symbol><symbol id="superdomes" viewBox="0 0 230 230"><path d="M148.5 141.1H160v11.34h-11.5zm-36.8 0h11.5v11.34h-11.5zm-21.6 0h18v11.34h-18zm36.8 0h18v11.34h-18zM117.5 66c-21.1 0-38.7 12.8-39.6 36h79.2c-.9-23.2-18.5-36-39.6-36z"/><path d="M117.5 5.9L22.6 60.7v109.6l94.9 54.8 94.9-54.8V60.7zm56.9 133.4a1.7 1.7 0 0 1-1.8 1.8h-9v11.3h9a1.8 1.8 0 1 1 0 3.6H62.4a1.8 1.8 0 1 1 0-3.6h9v-11.3h-9a1.7 1.7 0 0 1-1.8-1.8v-35.5a1.7 1.7 0 0 1 1.8-1.8h11.9c.9-25.6 20-39.6 43.2-39.6s42.3 14 43.2 39.6h11.9a1.7 1.7 0 0 1 1.8 1.8z"/><path d="M75 141.1h11.5v11.34H75zm-10.8-3.6h106.6v-31.9H64.2zm52.4-12.3h43.9a1.8 1.8 0 1 1 0 3.6h-43.9a1.8 1.8 0 1 1 0-3.6z"/></symbol></svg>