<svg id="Layer_1" data-name="Layer 1" xmlns="http://www.w3.org/2000/svg" width="230" height="230" viewBox="0 0 230 230"><polygon points="115.5 5.9 210.4 60.7 210.4 170.3 115.5 225.1 20.6 170.3 20.6 60.7 115.5 5.9"/><path d="M63.5,156a1.7,1.7,0,0,1-1.8-1.8V132.4H37.9a1.8,1.8,0,1,1,0-3.6H51.4V117.1a1.7,1.7,0,0,1,1.8-1.8h7a57.2,57.2,0,0,1,55.1-43.7c.2-.2.4-.2.7,0a57,57,0,0,1,54.8,43.7h7a1.7,1.7,0,0,1,1.8,1.8v11.7h13.5a1.8,1.8,0,1,1,0,3.6H169.3v21.8a1.7,1.7,0,0,1-1.8,1.8ZM55,118.9v9.9H176v-9.9Zm56.9-43.5c-23,1.4-42.3,18.1-47.9,39.9H83.3Zm-46.6,57v20h48.4v-20ZM113.7,79,87.8,115.3h25.9Zm3.6-3.8v40.1H167A53.6,53.6,0,0,0,117.3,75.2Zm0,57.2v20h8.1v-20Zm11.7,0v20h36.7v-20Z" fill="#fff"/></svg>