<svg xmlns="http://www.w3.org/2000/svg" width="230" height="230" viewBox="0 0 230 230"><path d="M65.3 132.4h48.4v19.98H65.3zm48.4-17.1V79l-25.9 36.3h25.9zm-1.8-39.9c-23 1.4-42.3 18.1-47.9 39.9h19.3zm5.4-.2v40.1H167a53.6 53.6 0 0 0-49.7-40.1zm0 57.2h8.1v19.98h-8.1zm11.7 0h36.7v19.98H129z"/><path d="M115.5 5.9L20.6 60.7v109.6l94.9 54.8 94.9-54.8V60.7zm77.6 126.5h-23.8v21.8a1.7 1.7 0 0 1-1.8 1.8h-104a1.7 1.7 0 0 1-1.8-1.8v-21.8H37.9a1.8 1.8 0 1 1 0-3.6h13.5v-11.7a1.7 1.7 0 0 1 1.8-1.8h7a57.2 57.2 0 0 1 55.1-43.7c.2-.2.4-.2.7 0a57 57 0 0 1 54.8 43.7h7a1.7 1.7 0 0 1 1.8 1.8v11.7h13.5a1.8 1.8 0 1 1 0 3.6z"/><path d="M55 118.9h121v9.9H55z"/></svg>