<svg xmlns="http://www.w3.org/2000/svg" width="230" height="230" viewBox="0 0 230 230"><path d="M89.2 138.4H77.4l-15.9 18.7 2.5 3.6 30.5-16-5.3-6.3zm4.7 0l15.1 18.2h13l15.1-18.2H93.9zm59.4-16.5a42.3 42.3 0 0 0 2.2-13.7 39 39 0 0 0-78 0c0 4.7.4 9.5 2.2 13.7zm-86 3.6h98.5v9.36H67.3zm12.6 31.1h24.5l-7.4-9-17.1 9z"/><path d="M115.5 5.7L20.6 60.5v109.6l94.9 54.8 94.9-54.8V60.5zm57.6 152.5l-4.1 6a2 2 0 0 1-2.4.5l-8.6-4.5H72.9l-8.7 4.5a1.9 1.9 0 0 1-2.3-.5l-4.2-6a2 2 0 0 1 .2-2.1l15-17.7h-7.4a1.7 1.7 0 0 1-1.8-1.8v-12.9a1.7 1.7 0 0 1 1.8-1.8h10.4a53.4 53.4 0 0 1-2-13.7 42.6 42.6 0 0 1 85.2 0 45.9 45.9 0 0 1-2 13.7h10.4a1.7 1.7 0 0 1 1.8 1.8v12.9a1.7 1.7 0 0 1-1.8 1.8h-9.1l14.7 17.7a1.7 1.7 0 0 1 0 2.1z"/><path d="M126.7 156.6h24.5l-17.1-9-7.4 9zm15.1-18.2l-5.4 6.3 30.6 16 2.5-3.4-15.8-18.9h-11.9z"/></svg>